<?xml version="1.0" standalone="no"?>
<!DOCTYPE svg PUBLIC "-//W3C//DTD SVG 20010904//EN"
 "http://www.w3.org/TR/2001/REC-SVG-20010904/DTD/svg10.dtd">
<svg version="1.0" xmlns="http://www.w3.org/2000/svg"
 width="1800.000000pt" height="1800.000000pt" viewBox="0 0 1800.000000 1800.000000"
 preserveAspectRatio="xMidYMid meet">
<metadata>
Created by potrace 1.14, written by Peter Selinger 2001-2017
</metadata>
<g transform="translate(0.000000,1800.000000) scale(0.100000,-0.100000)"
fill="#000000" stroke="none">
<path d="M3380 13929 l0 -481 -39 49 c-87 111 -214 194 -351 230 -94 25 -288
22 -395 -6 -436 -115 -686 -550 -662 -1151 12 -310 101 -539 281 -729 168
-176 389 -263 623 -246 227 16 390 103 520 279 l43 58 0 -141 0 -141 260 0
260 0 0 1380 0 1380 -270 0 -270 0 0 -481z m-358 -660 c161 -34 286 -163 339
-352 21 -72 24 -104 24 -257 0 -197 -11 -255 -70 -375 -44 -90 -112 -160 -195
-199 -54 -25 -80 -31 -158 -34 -232 -11 -368 92 -441 333 -46 149 -44 410 3
562 26 81 79 179 122 224 79 83 243 126 376 98z"/>
<path d="M5003 13740 c-301 -32 -520 -157 -620 -355 -55 -108 -108 -324 -86
-346 5 -5 119 -8 258 -7 l248 3 21 66 c52 161 131 209 340 209 231 0 321 -57
321 -202 0 -80 -18 -110 -90 -150 -58 -31 -101 -40 -350 -73 -366 -47 -527
-107 -662 -244 -105 -108 -154 -249 -154 -441 0 -122 14 -197 55 -285 117
-253 458 -380 792 -295 124 32 266 115 384 226 l47 44 6 -63 c3 -35 14 -88 24
-118 l18 -54 290 0 290 0 3 40 c2 36 -1 42 -32 62 -80 52 -85 99 -85 914 -1
520 -2 561 -21 633 -49 191 -160 296 -398 376 -165 55 -411 80 -599 60z m487
-1199 c0 -279 -58 -411 -217 -493 -86 -45 -158 -62 -253 -61 -82 1 -128 16
-179 59 -53 44 -74 97 -74 190 -1 71 2 86 29 135 52 92 124 126 374 174 137
26 235 54 280 80 14 8 28 14 33 15 4 0 7 -45 7 -99z"/>
<path d="M10835 13740 c-193 -31 -309 -99 -427 -251 l-63 -81 -3 141 -3 141
-254 0 -255 0 0 -1020 0 -1020 264 0 265 0 3 638 c4 569 6 643 21 696 42 141
126 245 235 287 83 33 255 33 328 0 100 -44 157 -130 174 -263 5 -40 10 -362
10 -716 l0 -642 273 2 272 3 3 685 c2 427 -1 727 -8 797 -18 196 -65 310 -169
414 -77 77 -190 138 -315 169 -92 23 -266 33 -351 20z"/>
<path d="M7381 13724 c-150 -32 -281 -124 -374 -264 l-37 -55 0 143 0 142
-260 0 -260 0 0 -1020 0 -1020 270 0 269 0 3 693 c3 610 5 698 20 740 44 129
156 196 324 197 128 0 221 -53 263 -149 35 -82 41 -206 41 -859 l0 -622 268 2
267 3 5 680 5 680 23 58 c36 88 79 137 153 175 56 29 76 34 145 35 43 1 100
-5 127 -12 63 -18 128 -77 158 -143 l24 -53 5 -710 5 -710 271 -3 271 -2 6
667 c6 686 1 860 -28 973 -42 163 -158 306 -307 380 -114 56 -204 73 -348 67
-235 -10 -419 -103 -535 -272 -21 -30 -41 -55 -44 -55 -3 0 -19 25 -35 55 -15
30 -54 83 -86 118 -67 72 -152 118 -266 142 -86 18 -258 18 -343 -1z"/>
<path d="M10280 10424 l0 -476 -74 79 c-116 123 -237 184 -403 203 -351 40
-671 -138 -835 -465 -98 -194 -147 -489 -126 -766 32 -448 283 -795 648 -895
89 -25 309 -25 400 -1 147 39 270 123 364 248 l45 60 3 -133 3 -133 260 0 260
0 3 1378 2 1377 -275 0 -275 0 0 -476z m-371 -664 c183 -30 318 -175 367 -395
27 -117 24 -352 -4 -458 -43 -158 -127 -274 -240 -329 -64 -32 -70 -33 -192
-33 -114 0 -130 2 -182 27 -83 39 -142 98 -187 189 -60 119 -76 204 -76 394 1
184 15 255 72 374 74 155 182 226 363 240 8 0 44 -4 79 -9z"/>
<path d="M5052 10235 c-155 -28 -303 -87 -403 -161 -111 -81 -226 -230 -299
-387 -146 -312 -146 -743 0 -1055 163 -346 413 -517 814 -553 269 -25 547 34
726 153 152 101 289 288 364 496 94 262 94 601 0 864 -62 173 -179 350 -297
449 -119 100 -269 165 -448 194 -115 18 -355 18 -457 0z m329 -445 c175 -33
304 -169 356 -376 25 -100 25 -389 0 -497 -39 -167 -129 -291 -254 -350 -66
-31 -72 -32 -203 -32 -131 0 -137 1 -202 32 -138 65 -230 201 -263 388 -22
119 -17 376 9 470 74 275 289 415 557 365z"/>
<path d="M7375 10240 c-292 -46 -503 -182 -654 -425 -345 -551 -174 -1372 339
-1630 150 -75 311 -109 525 -109 220 0 380 35 535 115 235 122 414 382 481
699 32 150 32 392 0 540 -59 278 -212 527 -404 658 -75 52 -184 100 -292 128
-87 23 -124 27 -285 29 -102 2 -212 0 -245 -5z m305 -450 c172 -33 294 -155
350 -350 32 -108 39 -352 15 -484 -33 -187 -119 -317 -253 -383 l-76 -38 -135
0 c-132 0 -138 1 -204 32 -120 57 -202 164 -249 328 -20 71 -23 101 -23 265 1
142 5 201 18 254 37 147 124 274 226 330 90 48 221 67 331 46z"/>
<path d="M2705 10230 c-304 -34 -506 -187 -652 -496 -89 -188 -128 -432 -112
-692 24 -383 201 -689 474 -822 198 -97 452 -114 647 -44 120 44 216 118 279
215 17 27 34 49 37 49 8 0 -6 -307 -18 -378 -18 -108 -48 -171 -109 -233 -87
-87 -139 -103 -326 -103 -132 0 -157 2 -207 22 -66 27 -121 82 -139 141 l-12
41 -289 0 -288 0 0 -28 c0 -47 29 -144 65 -218 67 -137 224 -256 421 -317 141
-45 285 -60 489 -54 337 11 553 80 709 227 90 84 139 162 175 274 57 181 56
151 56 1306 l0 1065 -257 3 -257 2 -3 -141 -3 -142 -39 57 c-138 200 -370 296
-641 266z m304 -471 c182 -29 312 -166 356 -374 20 -94 20 -331 0 -427 -32
-154 -115 -267 -242 -330 -65 -32 -72 -33 -188 -33 -116 0 -123 1 -187 33
-114 56 -195 169 -235 328 -23 93 -23 329 0 434 46 207 167 340 337 369 76 12
87 12 159 0z"/>
<path d="M12100 7160 l0 -250 273 2 272 3 0 245 0 245 -272 3 -273 2 0 -250z"/>
<path d="M13197 7223 c-4 -3 -7 -132 -7 -285 l0 -278 -140 0 -140 0 0 -195 0
-195 140 0 140 0 0 -648 c0 -415 4 -669 11 -706 23 -126 76 -197 184 -247 114
-54 234 -67 538 -61 l127 2 0 203 0 202 -119 1 c-70 0 -130 5 -148 13 -59 24
-58 13 -61 654 l-3 587 165 0 166 0 0 195 0 195 -165 0 -165 0 0 285 0 285
-258 0 c-142 0 -262 -3 -265 -7z"/>
<path d="M2600 6711 c-185 -42 -299 -101 -408 -210 -126 -128 -181 -253 -189
-431 -11 -215 56 -352 221 -455 100 -62 243 -114 486 -175 430 -108 495 -133
530 -205 48 -100 1 -187 -125 -230 -65 -22 -248 -31 -345 -16 -91 14 -191 60
-224 104 -26 35 -51 102 -61 160 l-6 37 -269 0 -270 0 0 -53 c0 -71 32 -193
72 -275 23 -48 58 -93 123 -158 75 -76 104 -98 176 -133 275 -132 746 -146
1057 -33 256 94 415 305 430 569 6 115 -9 196 -53 289 -66 137 -230 259 -440
327 -44 15 -179 49 -300 78 -382 89 -442 115 -466 202 -22 82 38 169 139 198
73 22 284 19 351 -5 92 -32 151 -106 175 -218 l6 -28 265 0 265 0 0 33 c0 17
-9 70 -20 117 -66 273 -231 423 -550 500 -136 33 -445 39 -570 11z"/>
<path d="M4850 6725 c-8 -2 -48 -9 -89 -15 -306 -50 -559 -255 -676 -545 -90
-226 -117 -540 -69 -815 46 -266 148 -441 338 -582 287 -213 703 -264 1043
-128 240 96 466 350 499 560 l7 40 -274 -2 -274 -3 -24 -45 c-79 -142 -244
-213 -424 -182 -219 38 -344 188 -370 445 l-5 47 699 0 699 0 0 118 c-1 312
-53 524 -174 712 -165 254 -413 384 -756 395 -74 2 -142 2 -150 0z m295 -482
c67 -34 142 -108 174 -171 22 -43 51 -150 51 -189 l0 -23 -410 0 c-370 0 -410
2 -410 16 0 71 68 229 126 294 78 86 147 111 299 107 100 -3 115 -6 170 -34z"/>
<path d="M6876 6704 c-333 -66 -574 -285 -679 -620 -50 -159 -62 -243 -62
-464 0 -228 10 -300 69 -472 86 -253 262 -443 482 -521 251 -89 564 -86 796 7
180 73 336 224 437 423 36 72 78 210 83 274 l3 44 -271 3 -271 2 -12 -62 c-14
-72 -50 -157 -87 -205 -76 -99 -304 -129 -443 -58 -99 51 -174 164 -208 316
-23 102 -23 411 0 524 20 97 72 208 122 264 21 22 67 55 103 73 63 31 73 33
172 33 88 0 113 -4 157 -24 91 -40 173 -153 189 -258 l6 -43 274 0 274 0 0 24
c0 87 -57 284 -112 388 -40 76 -151 190 -229 236 -79 46 -227 97 -338 116
-116 20 -357 20 -455 0z"/>
<path d="M11576 6704 c-146 -35 -260 -123 -366 -283 l-55 -82 -3 166 -2 165
-260 0 -260 0 2 -1017 3 -1018 270 0 270 0 5 600 c5 545 7 605 24 655 37 112
98 186 193 233 80 40 147 52 291 52 l132 -1 0 273 0 273 -92 -1 c-51 0 -120
-7 -152 -15z"/>
<path d="M8320 6048 c0 -343 5 -685 11 -761 18 -247 70 -394 178 -509 118
-126 248 -177 472 -185 209 -8 330 22 466 115 77 53 133 107 169 161 l29 45 3
-142 3 -142 259 0 260 0 0 1020 0 1020 -275 0 -275 0 0 -622 c0 -673 -3 -707
-55 -813 -34 -70 -99 -132 -175 -169 -62 -29 -71 -31 -185 -31 -115 0 -122 1
-175 30 -60 33 -113 96 -130 153 -24 83 -30 235 -30 830 l0 622 -275 0 -275 0
0 -622z"/>
<path d="M12100 5650 l0 -1020 273 2 272 3 3 1018 2 1017 -275 0 -275 0 0
-1020z"/>
<path d="M14150 6666 c0 -3 167 -478 370 -1056 204 -579 370 -1065 370 -1081
0 -71 -71 -207 -128 -245 -42 -29 -156 -48 -249 -42 l-73 5 0 -220 0 -219 228
5 c441 9 500 55 695 552 63 160 807 2279 807 2298 0 4 -127 7 -283 7 l-283 0
-199 -712 c-109 -392 -203 -728 -210 -746 -10 -30 -27 23 -230 710 l-220 743
-298 3 c-163 1 -297 0 -297 -2z"/>
</g>
</svg>
